<mxfile host="Electron" modified="2024-01-04T13:44:38.772Z" agent="Mozilla/5.0 (Windows NT 10.0; Win64; x64) AppleWebKit/537.36 (KHTML, like Gecko) draw.io/22.1.16 Chrome/120.0.6099.109 Electron/28.1.0 Safari/537.36" etag="6Yi1ivfM6zkjf234JSp_" version="22.1.16" type="device" pages="5">
  <diagram id="07j1OjhgAhYcBWjfCWoS" name="perceptron">
    <mxGraphModel dx="1036" dy="615" grid="1" gridSize="10" guides="1" tooltips="1" connect="1" arrows="1" fold="1" page="1" pageScale="1" pageWidth="827" pageHeight="1169" math="1" shadow="0">
      <root>
        <mxCell id="0" />
        <mxCell id="1" parent="0" />
        <mxCell id="k7R2oD5fmh3lrp1kcowy-6" style="rounded=0;orthogonalLoop=1;jettySize=auto;html=1;exitX=1;exitY=0.5;exitDx=0;exitDy=0;entryX=0;entryY=0.5;entryDx=0;entryDy=0;" parent="1" source="k7R2oD5fmh3lrp1kcowy-1" target="k7R2oD5fmh3lrp1kcowy-5" edge="1">
          <mxGeometry relative="1" as="geometry" />
        </mxCell>
        <mxCell id="k7R2oD5fmh3lrp1kcowy-1" value="$$x_1$$" style="ellipse;whiteSpace=wrap;html=1;aspect=fixed;fillColor=#dae8fc;strokeColor=#6c8ebf;" parent="1" vertex="1">
          <mxGeometry x="120" y="140" width="40" height="40" as="geometry" />
        </mxCell>
        <mxCell id="k7R2oD5fmh3lrp1kcowy-7" style="edgeStyle=none;rounded=0;orthogonalLoop=1;jettySize=auto;html=1;exitX=1;exitY=0.5;exitDx=0;exitDy=0;entryX=0;entryY=0.5;entryDx=0;entryDy=0;" parent="1" source="k7R2oD5fmh3lrp1kcowy-2" target="k7R2oD5fmh3lrp1kcowy-5" edge="1">
          <mxGeometry relative="1" as="geometry" />
        </mxCell>
        <mxCell id="k7R2oD5fmh3lrp1kcowy-2" value="&lt;span style=&quot;white-space: normal&quot;&gt;$$x_2$$&lt;/span&gt;" style="ellipse;whiteSpace=wrap;html=1;aspect=fixed;fillColor=#dae8fc;strokeColor=#6c8ebf;" parent="1" vertex="1">
          <mxGeometry x="120" y="220" width="40" height="40" as="geometry" />
        </mxCell>
        <mxCell id="k7R2oD5fmh3lrp1kcowy-9" style="edgeStyle=none;rounded=0;orthogonalLoop=1;jettySize=auto;html=1;exitX=1;exitY=0.5;exitDx=0;exitDy=0;entryX=0;entryY=0.5;entryDx=0;entryDy=0;" parent="1" source="k7R2oD5fmh3lrp1kcowy-3" target="k7R2oD5fmh3lrp1kcowy-5" edge="1">
          <mxGeometry relative="1" as="geometry" />
        </mxCell>
        <mxCell id="k7R2oD5fmh3lrp1kcowy-3" value="&lt;span style=&quot;white-space: normal&quot;&gt;$$x_3$$&lt;/span&gt;" style="ellipse;whiteSpace=wrap;html=1;aspect=fixed;fillColor=#dae8fc;strokeColor=#6c8ebf;" parent="1" vertex="1">
          <mxGeometry x="120" y="300" width="40" height="40" as="geometry" />
        </mxCell>
        <mxCell id="k7R2oD5fmh3lrp1kcowy-10" style="edgeStyle=none;rounded=0;orthogonalLoop=1;jettySize=auto;html=1;exitX=1;exitY=0.5;exitDx=0;exitDy=0;entryX=0;entryY=0.5;entryDx=0;entryDy=0;" parent="1" source="k7R2oD5fmh3lrp1kcowy-4" target="k7R2oD5fmh3lrp1kcowy-5" edge="1">
          <mxGeometry relative="1" as="geometry" />
        </mxCell>
        <mxCell id="k7R2oD5fmh3lrp1kcowy-4" value="&lt;span style=&quot;white-space: normal&quot;&gt;$$x_4$$&lt;/span&gt;" style="ellipse;whiteSpace=wrap;html=1;aspect=fixed;fillColor=#dae8fc;strokeColor=#6c8ebf;" parent="1" vertex="1">
          <mxGeometry x="120" y="380" width="40" height="40" as="geometry" />
        </mxCell>
        <mxCell id="k7R2oD5fmh3lrp1kcowy-19" style="edgeStyle=none;rounded=0;orthogonalLoop=1;jettySize=auto;html=1;exitX=1;exitY=0.5;exitDx=0;exitDy=0;entryX=0;entryY=0.5;entryDx=0;entryDy=0;" parent="1" source="k7R2oD5fmh3lrp1kcowy-5" target="k7R2oD5fmh3lrp1kcowy-18" edge="1">
          <mxGeometry relative="1" as="geometry" />
        </mxCell>
        <mxCell id="k7R2oD5fmh3lrp1kcowy-5" value="$$z = b + \sum_m x_m \cdot w_m$$" style="ellipse;whiteSpace=wrap;html=1;aspect=fixed;fillColor=#d5e8d4;strokeColor=#82b366;" parent="1" vertex="1">
          <mxGeometry x="280" y="210" width="140" height="140" as="geometry" />
        </mxCell>
        <mxCell id="k7R2oD5fmh3lrp1kcowy-14" value="$$w_1$$" style="text;html=1;strokeColor=none;fillColor=none;align=center;verticalAlign=middle;whiteSpace=wrap;rounded=0;" parent="1" vertex="1">
          <mxGeometry x="200" y="180" width="40" height="40" as="geometry" />
        </mxCell>
        <mxCell id="k7R2oD5fmh3lrp1kcowy-15" value="$$w_2$$" style="text;html=1;strokeColor=none;fillColor=none;align=center;verticalAlign=middle;whiteSpace=wrap;rounded=0;" parent="1" vertex="1">
          <mxGeometry x="200" y="230" width="40" height="40" as="geometry" />
        </mxCell>
        <mxCell id="k7R2oD5fmh3lrp1kcowy-16" value="$$w_3$$" style="text;html=1;strokeColor=none;fillColor=none;align=center;verticalAlign=middle;whiteSpace=wrap;rounded=0;" parent="1" vertex="1">
          <mxGeometry x="200" y="290" width="40" height="40" as="geometry" />
        </mxCell>
        <mxCell id="k7R2oD5fmh3lrp1kcowy-17" value="$$w_4$$" style="text;html=1;strokeColor=none;fillColor=none;align=center;verticalAlign=middle;whiteSpace=wrap;rounded=0;" parent="1" vertex="1">
          <mxGeometry x="200" y="340" width="40" height="40" as="geometry" />
        </mxCell>
        <mxCell id="k7R2oD5fmh3lrp1kcowy-18" value="$$\hat{y} = \begin{cases}1 &amp;amp; z \gt 0 \\ 0 &amp;amp; z \le 0\end{cases}$$" style="ellipse;whiteSpace=wrap;html=1;aspect=fixed;fillColor=#ffe6cc;strokeColor=#d79b00;" parent="1" vertex="1">
          <mxGeometry x="480" y="210" width="140" height="140" as="geometry" />
        </mxCell>
        <mxCell id="k7R2oD5fmh3lrp1kcowy-22" value="输入层" style="text;html=1;strokeColor=none;fillColor=none;align=center;verticalAlign=middle;whiteSpace=wrap;rounded=0;" parent="1" vertex="1">
          <mxGeometry x="120" y="100" width="40" height="20" as="geometry" />
        </mxCell>
        <mxCell id="k7R2oD5fmh3lrp1kcowy-23" value="权重" style="text;html=1;strokeColor=none;fillColor=none;align=center;verticalAlign=middle;whiteSpace=wrap;rounded=0;" parent="1" vertex="1">
          <mxGeometry x="200" y="100" width="40" height="20" as="geometry" />
        </mxCell>
        <mxCell id="k7R2oD5fmh3lrp1kcowy-25" value="线性层" style="text;html=1;strokeColor=none;fillColor=none;align=center;verticalAlign=middle;whiteSpace=wrap;rounded=0;" parent="1" vertex="1">
          <mxGeometry x="300" y="100" width="100" height="20" as="geometry" />
        </mxCell>
        <mxCell id="k7R2oD5fmh3lrp1kcowy-26" value="输出层(激活层)" style="text;html=1;strokeColor=none;fillColor=none;align=center;verticalAlign=middle;whiteSpace=wrap;rounded=0;" parent="1" vertex="1">
          <mxGeometry x="500" y="100" width="100" height="20" as="geometry" />
        </mxCell>
        <mxCell id="M_rCqGc4cpTwyKYhd22f-1" value="图二: 感知机推理流程图" style="text;html=1;strokeColor=none;fillColor=none;align=center;verticalAlign=middle;whiteSpace=wrap;rounded=0;" parent="1" vertex="1">
          <mxGeometry x="230" y="40" width="240" height="40" as="geometry" />
        </mxCell>
      </root>
    </mxGraphModel>
  </diagram>
  <diagram id="bD-orjiaFTkR2c7tQNlM" name="mlp">
    <mxGraphModel dx="1036" dy="615" grid="1" gridSize="10" guides="1" tooltips="1" connect="1" arrows="1" fold="1" page="1" pageScale="1" pageWidth="827" pageHeight="1169" math="1" shadow="0">
      <root>
        <mxCell id="NwXD3T8wOUbDdyyc-TCx-0" />
        <mxCell id="NwXD3T8wOUbDdyyc-TCx-1" parent="NwXD3T8wOUbDdyyc-TCx-0" />
        <mxCell id="jO3w2buOH5sLTsNzgfNj-0" style="rounded=0;orthogonalLoop=1;jettySize=auto;html=1;exitX=1;exitY=0.5;exitDx=0;exitDy=0;entryX=0;entryY=0.5;entryDx=0;entryDy=0;" parent="NwXD3T8wOUbDdyyc-TCx-1" source="jO3w2buOH5sLTsNzgfNj-1" target="jO3w2buOH5sLTsNzgfNj-9" edge="1">
          <mxGeometry relative="1" as="geometry" />
        </mxCell>
        <mxCell id="jO3w2buOH5sLTsNzgfNj-49" style="edgeStyle=none;rounded=0;orthogonalLoop=1;jettySize=auto;html=1;exitX=1;exitY=0.5;exitDx=0;exitDy=0;entryX=0;entryY=0.5;entryDx=0;entryDy=0;" parent="NwXD3T8wOUbDdyyc-TCx-1" source="jO3w2buOH5sLTsNzgfNj-1" target="jO3w2buOH5sLTsNzgfNj-48" edge="1">
          <mxGeometry relative="1" as="geometry" />
        </mxCell>
        <mxCell id="jO3w2buOH5sLTsNzgfNj-1" value="$$x_1$$" style="ellipse;whiteSpace=wrap;html=1;aspect=fixed;fillColor=#dae8fc;strokeColor=#6c8ebf;" parent="NwXD3T8wOUbDdyyc-TCx-1" vertex="1">
          <mxGeometry x="40" y="280" width="40" height="40" as="geometry" />
        </mxCell>
        <mxCell id="jO3w2buOH5sLTsNzgfNj-2" style="edgeStyle=none;rounded=0;orthogonalLoop=1;jettySize=auto;html=1;exitX=1;exitY=0.5;exitDx=0;exitDy=0;entryX=0;entryY=0.5;entryDx=0;entryDy=0;" parent="NwXD3T8wOUbDdyyc-TCx-1" source="jO3w2buOH5sLTsNzgfNj-3" target="jO3w2buOH5sLTsNzgfNj-9" edge="1">
          <mxGeometry relative="1" as="geometry" />
        </mxCell>
        <mxCell id="jO3w2buOH5sLTsNzgfNj-50" style="edgeStyle=none;rounded=0;orthogonalLoop=1;jettySize=auto;html=1;exitX=1;exitY=0.5;exitDx=0;exitDy=0;" parent="NwXD3T8wOUbDdyyc-TCx-1" source="jO3w2buOH5sLTsNzgfNj-3" edge="1">
          <mxGeometry relative="1" as="geometry">
            <mxPoint x="280" y="540" as="targetPoint" />
          </mxGeometry>
        </mxCell>
        <mxCell id="jO3w2buOH5sLTsNzgfNj-3" value="&lt;span style=&quot;white-space: normal&quot;&gt;$$x_2$$&lt;/span&gt;" style="ellipse;whiteSpace=wrap;html=1;aspect=fixed;fillColor=#dae8fc;strokeColor=#6c8ebf;" parent="NwXD3T8wOUbDdyyc-TCx-1" vertex="1">
          <mxGeometry x="40" y="360" width="40" height="40" as="geometry" />
        </mxCell>
        <mxCell id="jO3w2buOH5sLTsNzgfNj-4" style="edgeStyle=none;rounded=0;orthogonalLoop=1;jettySize=auto;html=1;exitX=1;exitY=0.5;exitDx=0;exitDy=0;entryX=0;entryY=0.5;entryDx=0;entryDy=0;" parent="NwXD3T8wOUbDdyyc-TCx-1" source="jO3w2buOH5sLTsNzgfNj-5" target="jO3w2buOH5sLTsNzgfNj-9" edge="1">
          <mxGeometry relative="1" as="geometry" />
        </mxCell>
        <mxCell id="jO3w2buOH5sLTsNzgfNj-51" style="edgeStyle=none;rounded=0;orthogonalLoop=1;jettySize=auto;html=1;exitX=1;exitY=0.5;exitDx=0;exitDy=0;" parent="NwXD3T8wOUbDdyyc-TCx-1" source="jO3w2buOH5sLTsNzgfNj-5" edge="1">
          <mxGeometry relative="1" as="geometry">
            <mxPoint x="280" y="540" as="targetPoint" />
          </mxGeometry>
        </mxCell>
        <mxCell id="jO3w2buOH5sLTsNzgfNj-5" value="&lt;span style=&quot;white-space: normal&quot;&gt;$$x_3$$&lt;/span&gt;" style="ellipse;whiteSpace=wrap;html=1;aspect=fixed;fillColor=#dae8fc;strokeColor=#6c8ebf;" parent="NwXD3T8wOUbDdyyc-TCx-1" vertex="1">
          <mxGeometry x="40" y="440" width="40" height="40" as="geometry" />
        </mxCell>
        <mxCell id="jO3w2buOH5sLTsNzgfNj-6" style="edgeStyle=none;rounded=0;orthogonalLoop=1;jettySize=auto;html=1;exitX=1;exitY=0.5;exitDx=0;exitDy=0;entryX=0;entryY=0.5;entryDx=0;entryDy=0;" parent="NwXD3T8wOUbDdyyc-TCx-1" source="jO3w2buOH5sLTsNzgfNj-7" target="jO3w2buOH5sLTsNzgfNj-9" edge="1">
          <mxGeometry relative="1" as="geometry" />
        </mxCell>
        <mxCell id="jO3w2buOH5sLTsNzgfNj-52" style="edgeStyle=none;rounded=0;orthogonalLoop=1;jettySize=auto;html=1;exitX=1;exitY=0.5;exitDx=0;exitDy=0;" parent="NwXD3T8wOUbDdyyc-TCx-1" source="jO3w2buOH5sLTsNzgfNj-7" edge="1">
          <mxGeometry relative="1" as="geometry">
            <mxPoint x="280" y="540" as="targetPoint" />
          </mxGeometry>
        </mxCell>
        <mxCell id="jO3w2buOH5sLTsNzgfNj-7" value="&lt;span style=&quot;white-space: normal&quot;&gt;$$x_4$$&lt;/span&gt;" style="ellipse;whiteSpace=wrap;html=1;aspect=fixed;fillColor=#dae8fc;strokeColor=#6c8ebf;" parent="NwXD3T8wOUbDdyyc-TCx-1" vertex="1">
          <mxGeometry x="40" y="520" width="40" height="40" as="geometry" />
        </mxCell>
        <mxCell id="jO3w2buOH5sLTsNzgfNj-53" style="edgeStyle=none;rounded=0;orthogonalLoop=1;jettySize=auto;html=1;exitX=1;exitY=0.5;exitDx=0;exitDy=0;entryX=0;entryY=0.5;entryDx=0;entryDy=0;" parent="NwXD3T8wOUbDdyyc-TCx-1" source="jO3w2buOH5sLTsNzgfNj-9" target="jO3w2buOH5sLTsNzgfNj-34" edge="1">
          <mxGeometry relative="1" as="geometry" />
        </mxCell>
        <mxCell id="jO3w2buOH5sLTsNzgfNj-9" value="$$a_1 = \sigma \left ( b^h_1 + \sum_m x_m \cdot w^h_{1m} \right )$$" style="ellipse;whiteSpace=wrap;html=1;aspect=fixed;fillColor=#d5e8d4;strokeColor=#82b366;" parent="NwXD3T8wOUbDdyyc-TCx-1" vertex="1">
          <mxGeometry x="279" y="200" width="200" height="200" as="geometry" />
        </mxCell>
        <mxCell id="jO3w2buOH5sLTsNzgfNj-34" value="$$\hat{y} = b^o + \sum_n a_n \cdot w_n^o$$" style="ellipse;whiteSpace=wrap;html=1;aspect=fixed;fillColor=#ffe6cc;strokeColor=#d79b00;" parent="NwXD3T8wOUbDdyyc-TCx-1" vertex="1">
          <mxGeometry x="600" y="340" width="160" height="160" as="geometry" />
        </mxCell>
        <mxCell id="jO3w2buOH5sLTsNzgfNj-67" style="edgeStyle=none;rounded=0;orthogonalLoop=1;jettySize=auto;html=1;exitX=1;exitY=0.5;exitDx=0;exitDy=0;entryX=0;entryY=0.5;entryDx=0;entryDy=0;" parent="NwXD3T8wOUbDdyyc-TCx-1" source="jO3w2buOH5sLTsNzgfNj-48" target="jO3w2buOH5sLTsNzgfNj-34" edge="1">
          <mxGeometry relative="1" as="geometry" />
        </mxCell>
        <mxCell id="jO3w2buOH5sLTsNzgfNj-48" value="$$a_2 = \sigma \left ( b^h_2 + \sum_m x_m \cdot w^h_{2m} \right )$$" style="ellipse;whiteSpace=wrap;html=1;aspect=fixed;fillColor=#d5e8d4;strokeColor=#82b366;" parent="NwXD3T8wOUbDdyyc-TCx-1" vertex="1">
          <mxGeometry x="279" y="440" width="200" height="200" as="geometry" />
        </mxCell>
        <mxCell id="jO3w2buOH5sLTsNzgfNj-55" value="$$w^h_{11}$$" style="text;html=1;strokeColor=none;fillColor=none;align=center;verticalAlign=middle;whiteSpace=wrap;rounded=0;" parent="NwXD3T8wOUbDdyyc-TCx-1" vertex="1">
          <mxGeometry x="180" y="280" width="40" height="20" as="geometry" />
        </mxCell>
        <mxCell id="jO3w2buOH5sLTsNzgfNj-56" value="$$w^h_{12}$$" style="text;html=1;strokeColor=none;fillColor=none;align=center;verticalAlign=middle;whiteSpace=wrap;rounded=0;" parent="NwXD3T8wOUbDdyyc-TCx-1" vertex="1">
          <mxGeometry x="180" y="309" width="40" height="20" as="geometry" />
        </mxCell>
        <mxCell id="jO3w2buOH5sLTsNzgfNj-59" value="$$w^h_{13}$$" style="text;html=1;strokeColor=none;fillColor=none;align=center;verticalAlign=middle;whiteSpace=wrap;rounded=0;" parent="NwXD3T8wOUbDdyyc-TCx-1" vertex="1">
          <mxGeometry x="180" y="337" width="40" height="20" as="geometry" />
        </mxCell>
        <mxCell id="jO3w2buOH5sLTsNzgfNj-60" value="$$w^h_{14}$$" style="text;html=1;strokeColor=none;fillColor=none;align=center;verticalAlign=middle;whiteSpace=wrap;rounded=0;" parent="NwXD3T8wOUbDdyyc-TCx-1" vertex="1">
          <mxGeometry x="180" y="364" width="40" height="20" as="geometry" />
        </mxCell>
        <mxCell id="jO3w2buOH5sLTsNzgfNj-61" value="$$w^h_{21}$$" style="text;html=1;strokeColor=none;fillColor=none;align=center;verticalAlign=middle;whiteSpace=wrap;rounded=0;" parent="NwXD3T8wOUbDdyyc-TCx-1" vertex="1">
          <mxGeometry x="180" y="450" width="40" height="20" as="geometry" />
        </mxCell>
        <mxCell id="jO3w2buOH5sLTsNzgfNj-62" value="$$w^h_{22}$$" style="text;html=1;strokeColor=none;fillColor=none;align=center;verticalAlign=middle;whiteSpace=wrap;rounded=0;" parent="NwXD3T8wOUbDdyyc-TCx-1" vertex="1">
          <mxGeometry x="180" y="480" width="40" height="20" as="geometry" />
        </mxCell>
        <mxCell id="jO3w2buOH5sLTsNzgfNj-63" value="$$w^h_{23}$$" style="text;html=1;strokeColor=none;fillColor=none;align=center;verticalAlign=middle;whiteSpace=wrap;rounded=0;" parent="NwXD3T8wOUbDdyyc-TCx-1" vertex="1">
          <mxGeometry x="180" y="510" width="40" height="20" as="geometry" />
        </mxCell>
        <mxCell id="jO3w2buOH5sLTsNzgfNj-64" value="$$w^h_{24}$$" style="text;html=1;strokeColor=none;fillColor=none;align=center;verticalAlign=middle;whiteSpace=wrap;rounded=0;" parent="NwXD3T8wOUbDdyyc-TCx-1" vertex="1">
          <mxGeometry x="180" y="540" width="40" height="20" as="geometry" />
        </mxCell>
        <mxCell id="jO3w2buOH5sLTsNzgfNj-65" value="$$w^o_1$$" style="text;html=1;strokeColor=none;fillColor=none;align=center;verticalAlign=middle;whiteSpace=wrap;rounded=0;" parent="NwXD3T8wOUbDdyyc-TCx-1" vertex="1">
          <mxGeometry x="519.5" y="330" width="40" height="20" as="geometry" />
        </mxCell>
        <mxCell id="jO3w2buOH5sLTsNzgfNj-68" value="$$w^o_2$$" style="text;html=1;strokeColor=none;fillColor=none;align=center;verticalAlign=middle;whiteSpace=wrap;rounded=0;" parent="NwXD3T8wOUbDdyyc-TCx-1" vertex="1">
          <mxGeometry x="519.5" y="486" width="40" height="20" as="geometry" />
        </mxCell>
        <mxCell id="jO3w2buOH5sLTsNzgfNj-69" value="输入层" style="text;html=1;strokeColor=none;fillColor=none;align=center;verticalAlign=middle;whiteSpace=wrap;rounded=0;" parent="NwXD3T8wOUbDdyyc-TCx-1" vertex="1">
          <mxGeometry x="40" y="160" width="40" height="20" as="geometry" />
        </mxCell>
        <mxCell id="jO3w2buOH5sLTsNzgfNj-70" value="隐藏层" style="text;html=1;strokeColor=none;fillColor=none;align=center;verticalAlign=middle;whiteSpace=wrap;rounded=0;" parent="NwXD3T8wOUbDdyyc-TCx-1" vertex="1">
          <mxGeometry x="359" y="160" width="40" height="20" as="geometry" />
        </mxCell>
        <mxCell id="jO3w2buOH5sLTsNzgfNj-71" value="输出层" style="text;html=1;strokeColor=none;fillColor=none;align=center;verticalAlign=middle;whiteSpace=wrap;rounded=0;" parent="NwXD3T8wOUbDdyyc-TCx-1" vertex="1">
          <mxGeometry x="660" y="160" width="40" height="20" as="geometry" />
        </mxCell>
        <mxCell id="9asgupnU7EY5UD5mLHj6-0" value="隐藏层权重" style="text;html=1;strokeColor=none;fillColor=none;align=center;verticalAlign=middle;whiteSpace=wrap;rounded=0;" parent="NwXD3T8wOUbDdyyc-TCx-1" vertex="1">
          <mxGeometry x="165" y="160" width="70" height="20" as="geometry" />
        </mxCell>
        <mxCell id="9asgupnU7EY5UD5mLHj6-1" value="输出层权重" style="text;html=1;strokeColor=none;fillColor=none;align=center;verticalAlign=middle;whiteSpace=wrap;rounded=0;" parent="NwXD3T8wOUbDdyyc-TCx-1" vertex="1">
          <mxGeometry x="504.5" y="160" width="70" height="20" as="geometry" />
        </mxCell>
        <mxCell id="9asgupnU7EY5UD5mLHj6-2" value="图四: 多层感知机推理流程图" style="text;html=1;strokeColor=none;fillColor=none;align=center;verticalAlign=middle;whiteSpace=wrap;rounded=0;" parent="NwXD3T8wOUbDdyyc-TCx-1" vertex="1">
          <mxGeometry x="298.25" y="100" width="161.5" height="30" as="geometry" />
        </mxCell>
      </root>
    </mxGraphModel>
  </diagram>
  <diagram id="gaBeargc1RUTiIyuK05J" name="step function">
    <mxGraphModel dx="714" dy="424" grid="1" gridSize="10" guides="1" tooltips="1" connect="1" arrows="1" fold="1" page="1" pageScale="1" pageWidth="827" pageHeight="1169" math="0" shadow="0">
      <root>
        <mxCell id="0" />
        <mxCell id="1" parent="0" />
        <mxCell id="YMrkLeCxfLWU9LRbLV9N-3" value="" style="endArrow=classic;html=1;rounded=0;" parent="1" edge="1">
          <mxGeometry width="50" height="50" relative="1" as="geometry">
            <mxPoint x="220" y="320" as="sourcePoint" />
            <mxPoint x="400" y="320" as="targetPoint" />
          </mxGeometry>
        </mxCell>
        <mxCell id="YMrkLeCxfLWU9LRbLV9N-4" value="" style="endArrow=classic;html=1;rounded=0;" parent="1" edge="1">
          <mxGeometry width="50" height="50" relative="1" as="geometry">
            <mxPoint x="220" y="320" as="sourcePoint" />
            <mxPoint x="220" y="120" as="targetPoint" />
          </mxGeometry>
        </mxCell>
        <mxCell id="YMrkLeCxfLWU9LRbLV9N-9" value="" style="endArrow=none;html=1;rounded=0;curved=1;" parent="1" edge="1">
          <mxGeometry width="50" height="50" relative="1" as="geometry">
            <mxPoint x="240" y="260" as="sourcePoint" />
            <mxPoint x="380" y="300" as="targetPoint" />
            <Array as="points">
              <mxPoint x="300" y="30" />
            </Array>
          </mxGeometry>
        </mxCell>
        <mxCell id="YMrkLeCxfLWU9LRbLV9N-10" value="" style="endArrow=none;dashed=1;html=1;dashPattern=1 4;strokeWidth=1;rounded=0;" parent="1" edge="1">
          <mxGeometry width="50" height="50" relative="1" as="geometry">
            <mxPoint x="240" y="320" as="sourcePoint" />
            <mxPoint x="240" y="140" as="targetPoint" />
          </mxGeometry>
        </mxCell>
        <mxCell id="YMrkLeCxfLWU9LRbLV9N-11" value="" style="endArrow=none;dashed=1;html=1;dashPattern=1 4;strokeWidth=1;rounded=0;" parent="1" edge="1">
          <mxGeometry width="50" height="50" relative="1" as="geometry">
            <mxPoint x="260" y="320" as="sourcePoint" />
            <mxPoint x="260" y="140" as="targetPoint" />
          </mxGeometry>
        </mxCell>
        <mxCell id="YMrkLeCxfLWU9LRbLV9N-12" value="" style="endArrow=none;dashed=1;html=1;dashPattern=1 4;strokeWidth=1;rounded=0;" parent="1" edge="1">
          <mxGeometry width="50" height="50" relative="1" as="geometry">
            <mxPoint x="280" y="320" as="sourcePoint" />
            <mxPoint x="280" y="140" as="targetPoint" />
          </mxGeometry>
        </mxCell>
        <mxCell id="YMrkLeCxfLWU9LRbLV9N-13" value="" style="endArrow=none;dashed=1;html=1;dashPattern=1 4;strokeWidth=1;rounded=0;" parent="1" edge="1">
          <mxGeometry width="50" height="50" relative="1" as="geometry">
            <mxPoint x="300" y="320" as="sourcePoint" />
            <mxPoint x="300" y="140" as="targetPoint" />
          </mxGeometry>
        </mxCell>
        <mxCell id="YMrkLeCxfLWU9LRbLV9N-14" value="" style="endArrow=none;dashed=1;html=1;dashPattern=1 4;strokeWidth=1;rounded=0;" parent="1" edge="1">
          <mxGeometry width="50" height="50" relative="1" as="geometry">
            <mxPoint x="320" y="320" as="sourcePoint" />
            <mxPoint x="320" y="140" as="targetPoint" />
          </mxGeometry>
        </mxCell>
        <mxCell id="YMrkLeCxfLWU9LRbLV9N-15" value="" style="endArrow=none;dashed=1;html=1;dashPattern=1 4;strokeWidth=1;rounded=0;" parent="1" edge="1">
          <mxGeometry width="50" height="50" relative="1" as="geometry">
            <mxPoint x="340" y="320" as="sourcePoint" />
            <mxPoint x="340" y="140" as="targetPoint" />
          </mxGeometry>
        </mxCell>
        <mxCell id="YMrkLeCxfLWU9LRbLV9N-16" value="" style="endArrow=none;dashed=1;html=1;dashPattern=1 4;strokeWidth=1;rounded=0;" parent="1" edge="1">
          <mxGeometry width="50" height="50" relative="1" as="geometry">
            <mxPoint x="360" y="320" as="sourcePoint" />
            <mxPoint x="360" y="140" as="targetPoint" />
          </mxGeometry>
        </mxCell>
        <mxCell id="YMrkLeCxfLWU9LRbLV9N-17" value="" style="endArrow=none;dashed=1;html=1;dashPattern=1 4;strokeWidth=1;rounded=0;" parent="1" edge="1">
          <mxGeometry width="50" height="50" relative="1" as="geometry">
            <mxPoint x="380" y="320" as="sourcePoint" />
            <mxPoint x="380" y="140" as="targetPoint" />
          </mxGeometry>
        </mxCell>
        <mxCell id="JQkJQhzkgCKPQ_nA2-p9-6" value="" style="endArrow=none;html=1;rounded=0;fillColor=#d80073;strokeColor=#A50040;strokeWidth=2;" parent="1" edge="1">
          <mxGeometry width="50" height="50" relative="1" as="geometry">
            <mxPoint x="240" y="230" as="sourcePoint" />
            <mxPoint x="260" y="230" as="targetPoint" />
          </mxGeometry>
        </mxCell>
        <mxCell id="JQkJQhzkgCKPQ_nA2-p9-7" value="" style="endArrow=none;html=1;rounded=0;fillColor=#d80073;strokeColor=#A50040;strokeWidth=2;" parent="1" edge="1">
          <mxGeometry width="50" height="50" relative="1" as="geometry">
            <mxPoint x="260" y="180" as="sourcePoint" />
            <mxPoint x="280" y="180" as="targetPoint" />
          </mxGeometry>
        </mxCell>
        <mxCell id="JQkJQhzkgCKPQ_nA2-p9-8" value="" style="endArrow=none;html=1;rounded=0;fillColor=#d80073;strokeColor=#A50040;strokeWidth=2;" parent="1" edge="1">
          <mxGeometry width="50" height="50" relative="1" as="geometry">
            <mxPoint x="280" y="159" as="sourcePoint" />
            <mxPoint x="300" y="159" as="targetPoint" />
          </mxGeometry>
        </mxCell>
        <mxCell id="JQkJQhzkgCKPQ_nA2-p9-9" value="" style="endArrow=none;html=1;rounded=0;fillColor=#d80073;strokeColor=#A50040;strokeWidth=2;" parent="1" edge="1">
          <mxGeometry width="50" height="50" relative="1" as="geometry">
            <mxPoint x="300" y="161" as="sourcePoint" />
            <mxPoint x="320" y="161" as="targetPoint" />
          </mxGeometry>
        </mxCell>
        <mxCell id="JQkJQhzkgCKPQ_nA2-p9-10" value="" style="endArrow=none;html=1;rounded=0;fillColor=#d80073;strokeColor=#A50040;strokeWidth=2;" parent="1" edge="1">
          <mxGeometry width="50" height="50" relative="1" as="geometry">
            <mxPoint x="320" y="180" as="sourcePoint" />
            <mxPoint x="340" y="180" as="targetPoint" />
          </mxGeometry>
        </mxCell>
        <mxCell id="JQkJQhzkgCKPQ_nA2-p9-11" value="" style="endArrow=none;html=1;rounded=0;fillColor=#d80073;strokeColor=#A50040;strokeWidth=2;" parent="1" edge="1">
          <mxGeometry width="50" height="50" relative="1" as="geometry">
            <mxPoint x="340" y="218" as="sourcePoint" />
            <mxPoint x="360" y="218" as="targetPoint" />
          </mxGeometry>
        </mxCell>
        <mxCell id="JQkJQhzkgCKPQ_nA2-p9-12" value="" style="endArrow=none;html=1;rounded=0;fillColor=#d80073;strokeColor=#A50040;strokeWidth=2;" parent="1" edge="1">
          <mxGeometry width="50" height="50" relative="1" as="geometry">
            <mxPoint x="360" y="265" as="sourcePoint" />
            <mxPoint x="380" y="265" as="targetPoint" />
          </mxGeometry>
        </mxCell>
        <mxCell id="tsq9nJZdH8g-1oGjSY6N-1" value="&lt;font face=&quot;Times New Roman&quot;&gt;图五: step 函数示意图&lt;/font&gt;" style="text;html=1;strokeColor=none;fillColor=none;align=center;verticalAlign=middle;whiteSpace=wrap;rounded=0;" parent="1" vertex="1">
          <mxGeometry x="240" y="80" width="120" height="30" as="geometry" />
        </mxCell>
      </root>
    </mxGraphModel>
  </diagram>
  <diagram id="1sW1yDcIIXtm3SchqbSa" name="single_input_mlp">
    <mxGraphModel dx="1036" dy="615" grid="1" gridSize="10" guides="1" tooltips="1" connect="1" arrows="1" fold="1" page="1" pageScale="1" pageWidth="827" pageHeight="1169" math="1" shadow="0">
      <root>
        <mxCell id="0" />
        <mxCell id="1" parent="0" />
        <mxCell id="MLGsUJik3vQjOt88yTgo-40" style="rounded=0;orthogonalLoop=1;jettySize=auto;html=1;exitX=1;exitY=0.5;exitDx=0;exitDy=0;entryX=0;entryY=0.5;entryDx=0;entryDy=0;" parent="1" source="MLGsUJik3vQjOt88yTgo-14" target="MLGsUJik3vQjOt88yTgo-15" edge="1">
          <mxGeometry relative="1" as="geometry" />
        </mxCell>
        <mxCell id="MLGsUJik3vQjOt88yTgo-14" value="$$a_1 = \sigma ( x \cdot w^h_1 + b^h_1&amp;nbsp;)$$" style="ellipse;whiteSpace=wrap;html=1;aspect=fixed;fillColor=#d5e8d4;strokeColor=#82b366;" parent="1" vertex="1">
          <mxGeometry x="340" y="200" width="140" height="140" as="geometry" />
        </mxCell>
        <mxCell id="MLGsUJik3vQjOt88yTgo-15" value="$$\hat{y} = b^o + \sum_n a_n \cdot w^o_n$$" style="ellipse;whiteSpace=wrap;html=1;aspect=fixed;fillColor=#ffe6cc;strokeColor=#d79b00;" parent="1" vertex="1">
          <mxGeometry x="600" y="360" width="140" height="140" as="geometry" />
        </mxCell>
        <mxCell id="MLGsUJik3vQjOt88yTgo-28" value="输入层" style="text;html=1;strokeColor=none;fillColor=none;align=center;verticalAlign=middle;whiteSpace=wrap;rounded=0;" parent="1" vertex="1">
          <mxGeometry x="130" y="160" width="40" height="20" as="geometry" />
        </mxCell>
        <mxCell id="MLGsUJik3vQjOt88yTgo-29" value="隐藏层" style="text;html=1;strokeColor=none;fillColor=none;align=center;verticalAlign=middle;whiteSpace=wrap;rounded=0;" parent="1" vertex="1">
          <mxGeometry x="390" y="160" width="40" height="20" as="geometry" />
        </mxCell>
        <mxCell id="MLGsUJik3vQjOt88yTgo-30" value="输出层" style="text;html=1;strokeColor=none;fillColor=none;align=center;verticalAlign=middle;whiteSpace=wrap;rounded=0;" parent="1" vertex="1">
          <mxGeometry x="650" y="160" width="40" height="20" as="geometry" />
        </mxCell>
        <mxCell id="MLGsUJik3vQjOt88yTgo-31" value="隐藏层权重" style="text;html=1;strokeColor=none;fillColor=none;align=center;verticalAlign=middle;whiteSpace=wrap;rounded=0;" parent="1" vertex="1">
          <mxGeometry x="248" y="160" width="70" height="20" as="geometry" />
        </mxCell>
        <mxCell id="MLGsUJik3vQjOt88yTgo-32" value="输出层权重" style="text;html=1;strokeColor=none;fillColor=none;align=center;verticalAlign=middle;whiteSpace=wrap;rounded=0;" parent="1" vertex="1">
          <mxGeometry x="499.5" y="160" width="70" height="20" as="geometry" />
        </mxCell>
        <mxCell id="MLGsUJik3vQjOt88yTgo-33" value="图六: 单输入 MLP 流程图" style="text;html=1;strokeColor=none;fillColor=none;align=center;verticalAlign=middle;whiteSpace=wrap;rounded=0;" parent="1" vertex="1">
          <mxGeometry x="333" y="120" width="161.5" height="30" as="geometry" />
        </mxCell>
        <mxCell id="MLGsUJik3vQjOt88yTgo-41" style="rounded=0;orthogonalLoop=1;jettySize=auto;html=1;exitX=1;exitY=0.5;exitDx=0;exitDy=0;entryX=0;entryY=0.5;entryDx=0;entryDy=0;" parent="1" source="MLGsUJik3vQjOt88yTgo-34" target="MLGsUJik3vQjOt88yTgo-15" edge="1">
          <mxGeometry relative="1" as="geometry" />
        </mxCell>
        <mxCell id="MLGsUJik3vQjOt88yTgo-34" value="$$a_2 = \sigma ( x \cdot w^h_2 + b^h_2 )$$" style="ellipse;whiteSpace=wrap;html=1;aspect=fixed;fillColor=#d5e8d4;strokeColor=#82b366;" parent="1" vertex="1">
          <mxGeometry x="340" y="360" width="140" height="140" as="geometry" />
        </mxCell>
        <mxCell id="MLGsUJik3vQjOt88yTgo-42" style="rounded=0;orthogonalLoop=1;jettySize=auto;html=1;exitX=1;exitY=0.5;exitDx=0;exitDy=0;entryX=0;entryY=0.5;entryDx=0;entryDy=0;" parent="1" source="MLGsUJik3vQjOt88yTgo-36" target="MLGsUJik3vQjOt88yTgo-15" edge="1">
          <mxGeometry relative="1" as="geometry" />
        </mxCell>
        <mxCell id="MLGsUJik3vQjOt88yTgo-36" value="$$a_3 = \sigma ( x \cdot w^h_3 + b^h_3 )$$" style="ellipse;whiteSpace=wrap;html=1;aspect=fixed;fillColor=#d5e8d4;strokeColor=#82b366;" parent="1" vertex="1">
          <mxGeometry x="340" y="520" width="140" height="140" as="geometry" />
        </mxCell>
        <mxCell id="MLGsUJik3vQjOt88yTgo-44" style="rounded=0;orthogonalLoop=1;jettySize=auto;html=1;exitX=1;exitY=0.5;exitDx=0;exitDy=0;entryX=0;entryY=0.5;entryDx=0;entryDy=0;" parent="1" source="MLGsUJik3vQjOt88yTgo-43" target="MLGsUJik3vQjOt88yTgo-14" edge="1">
          <mxGeometry relative="1" as="geometry" />
        </mxCell>
        <mxCell id="MLGsUJik3vQjOt88yTgo-45" style="rounded=0;orthogonalLoop=1;jettySize=auto;html=1;exitX=1;exitY=0.5;exitDx=0;exitDy=0;entryX=0;entryY=0.5;entryDx=0;entryDy=0;" parent="1" source="MLGsUJik3vQjOt88yTgo-43" target="MLGsUJik3vQjOt88yTgo-34" edge="1">
          <mxGeometry relative="1" as="geometry" />
        </mxCell>
        <mxCell id="MLGsUJik3vQjOt88yTgo-46" style="rounded=0;orthogonalLoop=1;jettySize=auto;html=1;exitX=1;exitY=0.5;exitDx=0;exitDy=0;entryX=0;entryY=0.5;entryDx=0;entryDy=0;" parent="1" source="MLGsUJik3vQjOt88yTgo-43" target="MLGsUJik3vQjOt88yTgo-36" edge="1">
          <mxGeometry relative="1" as="geometry" />
        </mxCell>
        <mxCell id="MLGsUJik3vQjOt88yTgo-43" value="$$x$$" style="ellipse;whiteSpace=wrap;html=1;aspect=fixed;fillColor=#dae8fc;strokeColor=#6c8ebf;" parent="1" vertex="1">
          <mxGeometry x="80" y="360" width="140" height="140" as="geometry" />
        </mxCell>
        <mxCell id="MLGsUJik3vQjOt88yTgo-48" value="$$w^h_1$$" style="text;html=1;strokeColor=none;fillColor=none;align=center;verticalAlign=middle;whiteSpace=wrap;rounded=0;" parent="1" vertex="1">
          <mxGeometry x="253" y="310" width="60" height="30" as="geometry" />
        </mxCell>
        <mxCell id="MLGsUJik3vQjOt88yTgo-49" value="$$w^h_2$$" style="text;html=1;strokeColor=none;fillColor=none;align=center;verticalAlign=middle;whiteSpace=wrap;rounded=0;" parent="1" vertex="1">
          <mxGeometry x="253" y="400" width="60" height="30" as="geometry" />
        </mxCell>
        <mxCell id="MLGsUJik3vQjOt88yTgo-50" value="$$w^h_3$$" style="text;html=1;strokeColor=none;fillColor=none;align=center;verticalAlign=middle;whiteSpace=wrap;rounded=0;" parent="1" vertex="1">
          <mxGeometry x="253" y="480" width="60" height="30" as="geometry" />
        </mxCell>
        <mxCell id="MLGsUJik3vQjOt88yTgo-51" value="$$w^o_1$$" style="text;html=1;strokeColor=none;fillColor=none;align=center;verticalAlign=middle;whiteSpace=wrap;rounded=0;" parent="1" vertex="1">
          <mxGeometry x="504.5" y="310" width="60" height="30" as="geometry" />
        </mxCell>
        <mxCell id="MLGsUJik3vQjOt88yTgo-52" value="$$w^o_2$$" style="text;html=1;strokeColor=none;fillColor=none;align=center;verticalAlign=middle;whiteSpace=wrap;rounded=0;" parent="1" vertex="1">
          <mxGeometry x="504.5" y="400" width="60" height="30" as="geometry" />
        </mxCell>
        <mxCell id="MLGsUJik3vQjOt88yTgo-53" value="$$w^o_3$$" style="text;html=1;strokeColor=none;fillColor=none;align=center;verticalAlign=middle;whiteSpace=wrap;rounded=0;" parent="1" vertex="1">
          <mxGeometry x="504.5" y="480" width="60" height="30" as="geometry" />
        </mxCell>
      </root>
    </mxGraphModel>
  </diagram>
  <diagram id="hsfDWMmusgEUOFW7DZVS" name="computational_graph">
    <mxGraphModel dx="1036" dy="615" grid="1" gridSize="10" guides="1" tooltips="1" connect="1" arrows="1" fold="1" page="1" pageScale="1" pageWidth="827" pageHeight="1169" math="1" shadow="0">
      <root>
        <mxCell id="0" />
        <mxCell id="1" parent="0" />
        <mxCell id="OxWeYc3FaydY4S9qIedM-40" style="rounded=0;orthogonalLoop=1;jettySize=auto;html=1;exitX=1;exitY=0.5;exitDx=0;exitDy=0;entryX=0;entryY=0.5;entryDx=0;entryDy=0;" parent="1" source="OxWeYc3FaydY4S9qIedM-34" target="OxWeYc3FaydY4S9qIedM-38" edge="1">
          <mxGeometry relative="1" as="geometry" />
        </mxCell>
        <mxCell id="OxWeYc3FaydY4S9qIedM-58" style="rounded=0;orthogonalLoop=1;jettySize=auto;html=1;exitX=1;exitY=0.5;exitDx=0;exitDy=0;entryX=0;entryY=0.5;entryDx=0;entryDy=0;" parent="1" source="OxWeYc3FaydY4S9qIedM-34" target="OxWeYc3FaydY4S9qIedM-37" edge="1">
          <mxGeometry relative="1" as="geometry" />
        </mxCell>
        <mxCell id="OxWeYc3FaydY4S9qIedM-34" value="$$x_1$$" style="rounded=1;whiteSpace=wrap;html=1;fillColor=#dae8fc;strokeColor=#6c8ebf;" parent="1" vertex="1">
          <mxGeometry x="80" y="140" width="80" height="40" as="geometry" />
        </mxCell>
        <mxCell id="OxWeYc3FaydY4S9qIedM-43" style="rounded=0;orthogonalLoop=1;jettySize=auto;html=1;exitX=1;exitY=0.5;exitDx=0;exitDy=0;entryX=0;entryY=0.5;entryDx=0;entryDy=0;" parent="1" source="OxWeYc3FaydY4S9qIedM-36" target="OxWeYc3FaydY4S9qIedM-37" edge="1">
          <mxGeometry relative="1" as="geometry" />
        </mxCell>
        <mxCell id="OxWeYc3FaydY4S9qIedM-44" style="rounded=0;orthogonalLoop=1;jettySize=auto;html=1;exitX=1;exitY=0.5;exitDx=0;exitDy=0;entryX=0;entryY=0.5;entryDx=0;entryDy=0;" parent="1" source="OxWeYc3FaydY4S9qIedM-36" target="OxWeYc3FaydY4S9qIedM-38" edge="1">
          <mxGeometry relative="1" as="geometry" />
        </mxCell>
        <mxCell id="OxWeYc3FaydY4S9qIedM-36" value="$$x_2$$" style="rounded=1;whiteSpace=wrap;html=1;fillColor=#dae8fc;strokeColor=#6c8ebf;" parent="1" vertex="1">
          <mxGeometry x="80" y="260" width="80" height="40" as="geometry" />
        </mxCell>
        <mxCell id="OxWeYc3FaydY4S9qIedM-47" style="edgeStyle=orthogonalEdgeStyle;rounded=0;orthogonalLoop=1;jettySize=auto;html=1;exitX=1;exitY=0.5;exitDx=0;exitDy=0;entryX=0;entryY=0.5;entryDx=0;entryDy=0;dashed=1;" parent="1" source="OxWeYc3FaydY4S9qIedM-37" target="OxWeYc3FaydY4S9qIedM-46" edge="1">
          <mxGeometry relative="1" as="geometry" />
        </mxCell>
        <mxCell id="OxWeYc3FaydY4S9qIedM-37" value="$$z_1 = b^h_1 + \sum_m x_m \cdot w^h_{1m}$$" style="rounded=1;whiteSpace=wrap;html=1;fillColor=#d5e8d4;strokeColor=#82b366;" parent="1" vertex="1">
          <mxGeometry x="280" y="120" width="160" height="80" as="geometry" />
        </mxCell>
        <mxCell id="OxWeYc3FaydY4S9qIedM-49" style="edgeStyle=orthogonalEdgeStyle;rounded=0;orthogonalLoop=1;jettySize=auto;html=1;exitX=1;exitY=0.5;exitDx=0;exitDy=0;dashed=1;" parent="1" source="OxWeYc3FaydY4S9qIedM-38" target="OxWeYc3FaydY4S9qIedM-48" edge="1">
          <mxGeometry relative="1" as="geometry" />
        </mxCell>
        <mxCell id="OxWeYc3FaydY4S9qIedM-38" value="$$z_2 = b^h_2 + \sum_m x_m \cdot w^h_{2m}$$" style="rounded=1;whiteSpace=wrap;html=1;fillColor=#d5e8d4;strokeColor=#82b366;" parent="1" vertex="1">
          <mxGeometry x="280" y="240" width="160" height="80" as="geometry" />
        </mxCell>
        <mxCell id="OxWeYc3FaydY4S9qIedM-52" style="rounded=0;orthogonalLoop=1;jettySize=auto;html=1;exitX=1;exitY=0.5;exitDx=0;exitDy=0;entryX=0;entryY=0.5;entryDx=0;entryDy=0;" parent="1" source="OxWeYc3FaydY4S9qIedM-46" target="OxWeYc3FaydY4S9qIedM-51" edge="1">
          <mxGeometry relative="1" as="geometry" />
        </mxCell>
        <mxCell id="OxWeYc3FaydY4S9qIedM-46" value="$$a_1 = \sigma(z_1)$$" style="rounded=1;whiteSpace=wrap;html=1;fillColor=#d5e8d4;strokeColor=#82b366;" parent="1" vertex="1">
          <mxGeometry x="519.5" y="140" width="80" height="40" as="geometry" />
        </mxCell>
        <mxCell id="OxWeYc3FaydY4S9qIedM-53" style="rounded=0;orthogonalLoop=1;jettySize=auto;html=1;exitX=1;exitY=0.5;exitDx=0;exitDy=0;entryX=0;entryY=0.5;entryDx=0;entryDy=0;" parent="1" source="OxWeYc3FaydY4S9qIedM-48" target="OxWeYc3FaydY4S9qIedM-51" edge="1">
          <mxGeometry relative="1" as="geometry" />
        </mxCell>
        <mxCell id="OxWeYc3FaydY4S9qIedM-48" value="$$a_2 = \sigma(z_2)$$" style="rounded=1;whiteSpace=wrap;html=1;fillColor=#d5e8d4;strokeColor=#82b366;" parent="1" vertex="1">
          <mxGeometry x="519.5" y="260" width="80" height="40" as="geometry" />
        </mxCell>
        <mxCell id="OxWeYc3FaydY4S9qIedM-51" value="$$\hat{y} = b^o + \sum_n a_n \cdot w^o_n$$" style="rounded=1;whiteSpace=wrap;html=1;fillColor=#ffe6cc;strokeColor=#d79b00;" parent="1" vertex="1">
          <mxGeometry x="680" y="180" width="160" height="80" as="geometry" />
        </mxCell>
        <mxCell id="OxWeYc3FaydY4S9qIedM-54" value="$$w^o_1$$" style="text;html=1;strokeColor=none;fillColor=none;align=center;verticalAlign=middle;whiteSpace=wrap;rounded=0;" parent="1" vertex="1">
          <mxGeometry x="610" y="165" width="60" height="30" as="geometry" />
        </mxCell>
        <mxCell id="OxWeYc3FaydY4S9qIedM-55" value="$$w^o_2$$" style="text;html=1;strokeColor=none;fillColor=none;align=center;verticalAlign=middle;whiteSpace=wrap;rounded=0;" parent="1" vertex="1">
          <mxGeometry x="610" y="250" width="60" height="30" as="geometry" />
        </mxCell>
        <mxCell id="OxWeYc3FaydY4S9qIedM-56" value="$$w^h_{11}$$" style="text;html=1;strokeColor=none;fillColor=none;align=center;verticalAlign=middle;whiteSpace=wrap;rounded=0;" parent="1" vertex="1">
          <mxGeometry x="170" y="135" width="60" height="30" as="geometry" />
        </mxCell>
        <mxCell id="OxWeYc3FaydY4S9qIedM-59" value="$$w^h_{12}$$" style="text;html=1;strokeColor=none;fillColor=none;align=center;verticalAlign=middle;whiteSpace=wrap;rounded=0;" parent="1" vertex="1">
          <mxGeometry x="170" y="240" width="60" height="30" as="geometry" />
        </mxCell>
        <mxCell id="OxWeYc3FaydY4S9qIedM-61" value="$$w^h_{21}$$" style="text;html=1;strokeColor=none;fillColor=none;align=center;verticalAlign=middle;whiteSpace=wrap;rounded=0;" parent="1" vertex="1">
          <mxGeometry x="170" y="169" width="60" height="30" as="geometry" />
        </mxCell>
        <mxCell id="OxWeYc3FaydY4S9qIedM-62" value="$$w^h_{22}$$" style="text;html=1;strokeColor=none;fillColor=none;align=center;verticalAlign=middle;whiteSpace=wrap;rounded=0;" parent="1" vertex="1">
          <mxGeometry x="170" y="280" width="60" height="30" as="geometry" />
        </mxCell>
        <mxCell id="OxWeYc3FaydY4S9qIedM-66" value="$$\frac{\partial \mathrm{loss}}{\partial&amp;nbsp;&lt;br style=&quot;border-color: var(--border-color);&quot;&gt;x_1} = \sum_n \bigg [ (\hat{y} - y) \cdot w^o_n \cdot \sigma^{\prime} (z_n) \cdot w^h_{n1} \bigg ]$$" style="rounded=1;whiteSpace=wrap;html=1;fillColor=#dae8fc;strokeColor=#6c8ebf;" parent="1" vertex="1">
          <mxGeometry x="80" y="401" width="280" height="80" as="geometry" />
        </mxCell>
        <mxCell id="OxWeYc3FaydY4S9qIedM-69" value="$$\frac{\partial \mathrm{loss}}{\partial&amp;nbsp;&lt;br style=&quot;border-color: var(--border-color);&quot;&gt;x_2} = \sum_n \bigg [ (\hat{y} - y) \cdot w^o_n \cdot \sigma^{\prime} (z_n) \cdot w^h_{n2} \bigg ]$$" style="rounded=1;whiteSpace=wrap;html=1;fillColor=#dae8fc;strokeColor=#6c8ebf;" parent="1" vertex="1">
          <mxGeometry x="80" y="521" width="280" height="80" as="geometry" />
        </mxCell>
        <mxCell id="OxWeYc3FaydY4S9qIedM-99" style="rounded=0;orthogonalLoop=1;jettySize=auto;html=1;exitX=0;exitY=0.5;exitDx=0;exitDy=0;entryX=1;entryY=0.5;entryDx=0;entryDy=0;" parent="1" source="OxWeYc3FaydY4S9qIedM-74" target="OxWeYc3FaydY4S9qIedM-66" edge="1">
          <mxGeometry relative="1" as="geometry" />
        </mxCell>
        <mxCell id="OxWeYc3FaydY4S9qIedM-100" style="rounded=0;orthogonalLoop=1;jettySize=auto;html=1;exitX=0;exitY=0.5;exitDx=0;exitDy=0;entryX=1;entryY=0.5;entryDx=0;entryDy=0;" parent="1" source="OxWeYc3FaydY4S9qIedM-74" target="OxWeYc3FaydY4S9qIedM-69" edge="1">
          <mxGeometry relative="1" as="geometry" />
        </mxCell>
        <mxCell id="OxWeYc3FaydY4S9qIedM-74" value="$$\frac{\partial \mathrm{loss}}{\partial&amp;nbsp;&lt;br style=&quot;border-color: var(--border-color);&quot;&gt;z_1} = (\hat{y} - y) \cdot w^o_1 \cdot \sigma^{\prime} (z_1)$$" style="rounded=1;whiteSpace=wrap;html=1;fillColor=#d5e8d4;strokeColor=#82b366;" parent="1" vertex="1">
          <mxGeometry x="480" y="401" width="200" height="80" as="geometry" />
        </mxCell>
        <mxCell id="OxWeYc3FaydY4S9qIedM-101" style="rounded=0;orthogonalLoop=1;jettySize=auto;html=1;exitX=0;exitY=0.5;exitDx=0;exitDy=0;entryX=1;entryY=0.5;entryDx=0;entryDy=0;" parent="1" source="OxWeYc3FaydY4S9qIedM-76" target="OxWeYc3FaydY4S9qIedM-69" edge="1">
          <mxGeometry relative="1" as="geometry">
            <mxPoint x="440.0000000000002" y="560.7142857142856" as="targetPoint" />
          </mxGeometry>
        </mxCell>
        <mxCell id="OxWeYc3FaydY4S9qIedM-102" style="rounded=0;orthogonalLoop=1;jettySize=auto;html=1;exitX=0;exitY=0.5;exitDx=0;exitDy=0;entryX=1;entryY=0.5;entryDx=0;entryDy=0;" parent="1" source="OxWeYc3FaydY4S9qIedM-76" target="OxWeYc3FaydY4S9qIedM-66" edge="1">
          <mxGeometry relative="1" as="geometry" />
        </mxCell>
        <mxCell id="OxWeYc3FaydY4S9qIedM-76" value="$$\frac{\partial \mathrm{loss}}{\partial&amp;nbsp;&lt;br style=&quot;border-color: var(--border-color);&quot;&gt;z_2} = (\hat{y} - y) \cdot w^o_2 \cdot \sigma^{\prime} (z_2)$$" style="rounded=1;whiteSpace=wrap;html=1;fillColor=#d5e8d4;strokeColor=#82b366;" parent="1" vertex="1">
          <mxGeometry x="480" y="521" width="200" height="80" as="geometry" />
        </mxCell>
        <mxCell id="OxWeYc3FaydY4S9qIedM-94" style="edgeStyle=orthogonalEdgeStyle;rounded=0;orthogonalLoop=1;jettySize=auto;html=1;exitX=0;exitY=0.5;exitDx=0;exitDy=0;" parent="1" source="OxWeYc3FaydY4S9qIedM-78" target="OxWeYc3FaydY4S9qIedM-74" edge="1">
          <mxGeometry relative="1" as="geometry" />
        </mxCell>
        <mxCell id="OxWeYc3FaydY4S9qIedM-78" value="$$\frac{\partial \mathrm{loss}}{\partial&amp;nbsp;&lt;br style=&quot;border-color: var(--border-color);&quot;&gt;a_1} = (\hat{y} - y) \cdot w^o_1$$" style="rounded=1;whiteSpace=wrap;html=1;fillColor=#d5e8d4;strokeColor=#82b366;" parent="1" vertex="1">
          <mxGeometry x="740" y="401" width="160" height="80" as="geometry" />
        </mxCell>
        <mxCell id="OxWeYc3FaydY4S9qIedM-92" style="rounded=0;orthogonalLoop=1;jettySize=auto;html=1;exitX=0;exitY=0.5;exitDx=0;exitDy=0;entryX=1;entryY=0.5;entryDx=0;entryDy=0;" parent="1" source="OxWeYc3FaydY4S9qIedM-81" target="OxWeYc3FaydY4S9qIedM-78" edge="1">
          <mxGeometry relative="1" as="geometry" />
        </mxCell>
        <mxCell id="OxWeYc3FaydY4S9qIedM-93" style="rounded=0;orthogonalLoop=1;jettySize=auto;html=1;exitX=0;exitY=0.5;exitDx=0;exitDy=0;entryX=1;entryY=0.5;entryDx=0;entryDy=0;" parent="1" source="OxWeYc3FaydY4S9qIedM-81" target="OxWeYc3FaydY4S9qIedM-91" edge="1">
          <mxGeometry relative="1" as="geometry" />
        </mxCell>
        <mxCell id="OxWeYc3FaydY4S9qIedM-81" value="$$\frac{\partial \mathrm{loss}}{\partial&amp;nbsp;&lt;br&gt;\hat{y}} = \hat{y} - y$$" style="rounded=1;whiteSpace=wrap;html=1;fillColor=#ffe6cc;strokeColor=#d79b00;" parent="1" vertex="1">
          <mxGeometry x="960" y="461" width="120" height="80" as="geometry" />
        </mxCell>
        <mxCell id="OxWeYc3FaydY4S9qIedM-82" value="$$w^o_1$$" style="text;html=1;strokeColor=none;fillColor=none;align=center;verticalAlign=middle;whiteSpace=wrap;rounded=0;" parent="1" vertex="1">
          <mxGeometry x="905" y="448" width="60" height="30" as="geometry" />
        </mxCell>
        <mxCell id="OxWeYc3FaydY4S9qIedM-83" value="$$w^o_2$$" style="text;html=1;strokeColor=none;fillColor=none;align=center;verticalAlign=middle;whiteSpace=wrap;rounded=0;" parent="1" vertex="1">
          <mxGeometry x="905" y="523" width="60" height="30" as="geometry" />
        </mxCell>
        <mxCell id="OxWeYc3FaydY4S9qIedM-95" style="edgeStyle=orthogonalEdgeStyle;rounded=0;orthogonalLoop=1;jettySize=auto;html=1;exitX=0;exitY=0.5;exitDx=0;exitDy=0;entryX=1;entryY=0.5;entryDx=0;entryDy=0;" parent="1" source="OxWeYc3FaydY4S9qIedM-91" target="OxWeYc3FaydY4S9qIedM-76" edge="1">
          <mxGeometry relative="1" as="geometry" />
        </mxCell>
        <mxCell id="OxWeYc3FaydY4S9qIedM-91" value="$$\frac{\partial \mathrm{loss}}{\partial&amp;nbsp;&lt;br style=&quot;border-color: var(--border-color);&quot;&gt;a_2} = (\hat{y} - y) \cdot w^o_2$$" style="rounded=1;whiteSpace=wrap;html=1;fillColor=#d5e8d4;strokeColor=#82b366;" parent="1" vertex="1">
          <mxGeometry x="740" y="521" width="160" height="80" as="geometry" />
        </mxCell>
        <mxCell id="OxWeYc3FaydY4S9qIedM-96" value="$$\sigma^{\prime} (z_1)&lt;br&gt;$$" style="text;html=1;strokeColor=none;fillColor=none;align=center;verticalAlign=middle;whiteSpace=wrap;rounded=0;" parent="1" vertex="1">
          <mxGeometry x="680" y="411" width="60" height="30" as="geometry" />
        </mxCell>
        <mxCell id="OxWeYc3FaydY4S9qIedM-97" value="$$\sigma^{\prime} (z_2)&lt;br&gt;$$" style="text;html=1;strokeColor=none;fillColor=none;align=center;verticalAlign=middle;whiteSpace=wrap;rounded=0;" parent="1" vertex="1">
          <mxGeometry x="680" y="561" width="60" height="30" as="geometry" />
        </mxCell>
        <mxCell id="OxWeYc3FaydY4S9qIedM-103" value="$$w^h_{11}$$" style="text;html=1;strokeColor=none;fillColor=none;align=center;verticalAlign=middle;whiteSpace=wrap;rounded=0;" parent="1" vertex="1">
          <mxGeometry x="370" y="416" width="60" height="30" as="geometry" />
        </mxCell>
        <mxCell id="OxWeYc3FaydY4S9qIedM-104" value="$$w^h_{21}$$" style="text;html=1;strokeColor=none;fillColor=none;align=center;verticalAlign=middle;whiteSpace=wrap;rounded=0;" parent="1" vertex="1">
          <mxGeometry x="370" y="521" width="60" height="30" as="geometry" />
        </mxCell>
        <mxCell id="OxWeYc3FaydY4S9qIedM-105" value="$$w^h_{12}$$" style="text;html=1;strokeColor=none;fillColor=none;align=center;verticalAlign=middle;whiteSpace=wrap;rounded=0;" parent="1" vertex="1">
          <mxGeometry x="370" y="449" width="60" height="30" as="geometry" />
        </mxCell>
        <mxCell id="OxWeYc3FaydY4S9qIedM-106" value="$$w^h_{22}$$" style="text;html=1;strokeColor=none;fillColor=none;align=center;verticalAlign=middle;whiteSpace=wrap;rounded=0;" parent="1" vertex="1">
          <mxGeometry x="370" y="561" width="60" height="30" as="geometry" />
        </mxCell>
        <mxCell id="OxWeYc3FaydY4S9qIedM-108" value="&lt;font face=&quot;Times New Roman&quot;&gt;输入层&lt;br&gt;&lt;font style=&quot;&quot; color=&quot;#ff0000&quot;&gt;M 个元素&lt;/font&gt;&lt;/font&gt;" style="text;html=1;strokeColor=none;fillColor=none;align=center;verticalAlign=middle;whiteSpace=wrap;rounded=0;" parent="1" vertex="1">
          <mxGeometry x="80" y="320" width="80" height="40" as="geometry" />
        </mxCell>
        <mxCell id="OxWeYc3FaydY4S9qIedM-110" value="&lt;font face=&quot;Times New Roman&quot;&gt;激活层&lt;br&gt;&lt;font color=&quot;#ff0000&quot;&gt;N 个元素&lt;/font&gt;&lt;/font&gt;" style="text;html=1;strokeColor=none;fillColor=none;align=center;verticalAlign=middle;whiteSpace=wrap;rounded=0;" parent="1" vertex="1">
          <mxGeometry x="519.5" y="320" width="80" height="40" as="geometry" />
        </mxCell>
        <mxCell id="OxWeYc3FaydY4S9qIedM-112" value="&lt;font face=&quot;Times New Roman&quot;&gt;线性层&lt;br&gt;&lt;font color=&quot;#ff0000&quot;&gt;N 个元素&lt;/font&gt;&lt;/font&gt;" style="text;html=1;strokeColor=none;fillColor=none;align=center;verticalAlign=middle;whiteSpace=wrap;rounded=0;" parent="1" vertex="1">
          <mxGeometry x="320" y="320" width="80" height="40" as="geometry" />
        </mxCell>
        <mxCell id="OxWeYc3FaydY4S9qIedM-113" value="&lt;font face=&quot;Times New Roman&quot;&gt;输出层&lt;br&gt;&lt;font color=&quot;#ff0000&quot;&gt;1 个元素&lt;/font&gt;&lt;/font&gt;" style="text;html=1;strokeColor=none;fillColor=none;align=center;verticalAlign=middle;whiteSpace=wrap;rounded=0;" parent="1" vertex="1">
          <mxGeometry x="720" y="320" width="80" height="40" as="geometry" />
        </mxCell>
        <mxCell id="OxWeYc3FaydY4S9qIedM-114" value="&lt;font face=&quot;Times New Roman&quot;&gt;输入层&lt;br&gt;&lt;font color=&quot;#ff0000&quot;&gt;M 个元素&lt;/font&gt;&lt;/font&gt;" style="text;html=1;strokeColor=none;fillColor=none;align=center;verticalAlign=middle;whiteSpace=wrap;rounded=0;" parent="1" vertex="1">
          <mxGeometry x="180" y="601" width="80" height="40" as="geometry" />
        </mxCell>
        <mxCell id="OxWeYc3FaydY4S9qIedM-115" value="&lt;font face=&quot;Times New Roman&quot;&gt;线性层&lt;br&gt;&lt;font color=&quot;#ff0000&quot;&gt;N 个元素&lt;/font&gt;&lt;/font&gt;" style="text;html=1;strokeColor=none;fillColor=none;align=center;verticalAlign=middle;whiteSpace=wrap;rounded=0;" parent="1" vertex="1">
          <mxGeometry x="540" y="601" width="80" height="40" as="geometry" />
        </mxCell>
        <mxCell id="OxWeYc3FaydY4S9qIedM-116" value="&lt;font face=&quot;Times New Roman&quot;&gt;激活层&lt;br&gt;&lt;font color=&quot;#ff0000&quot;&gt;N 个元素&lt;/font&gt;&lt;/font&gt;" style="text;html=1;strokeColor=none;fillColor=none;align=center;verticalAlign=middle;whiteSpace=wrap;rounded=0;" parent="1" vertex="1">
          <mxGeometry x="780" y="601" width="80" height="40" as="geometry" />
        </mxCell>
        <mxCell id="OxWeYc3FaydY4S9qIedM-117" value="&lt;font face=&quot;Times New Roman&quot;&gt;输出层&lt;br&gt;&lt;font color=&quot;#ff0000&quot;&gt;1 个元素&lt;/font&gt;&lt;/font&gt;" style="text;html=1;strokeColor=none;fillColor=none;align=center;verticalAlign=middle;whiteSpace=wrap;rounded=0;" parent="1" vertex="1">
          <mxGeometry x="980" y="601" width="80" height="40" as="geometry" />
        </mxCell>
        <mxCell id="OxWeYc3FaydY4S9qIedM-119" value="&lt;b style=&quot;font-size: 14px;&quot;&gt;&lt;font style=&quot;font-size: 14px;&quot;&gt;前&lt;br&gt;向&lt;br&gt;计&lt;br&gt;算&lt;br&gt;图&lt;/font&gt;&lt;/b&gt;" style="text;html=1;strokeColor=none;fillColor=none;align=center;verticalAlign=middle;whiteSpace=wrap;rounded=0;" parent="1" vertex="1">
          <mxGeometry y="120" width="40" height="200" as="geometry" />
        </mxCell>
        <mxCell id="OxWeYc3FaydY4S9qIedM-124" value="&lt;font style=&quot;font-size: 14px;&quot;&gt;图九: 浅层 MLP 计算示意图&lt;/font&gt;" style="text;html=1;strokeColor=none;fillColor=none;align=center;verticalAlign=middle;whiteSpace=wrap;rounded=0;" parent="1" vertex="1">
          <mxGeometry x="314" y="40" width="200" height="40" as="geometry" />
        </mxCell>
        <mxCell id="OxWeYc3FaydY4S9qIedM-125" value="&lt;b style=&quot;font-size: 14px;&quot;&gt;&lt;font style=&quot;font-size: 14px;&quot;&gt;后&lt;br&gt;向&lt;br&gt;计&lt;br&gt;算&lt;br&gt;图&lt;/font&gt;&lt;/b&gt;" style="text;html=1;strokeColor=none;fillColor=none;align=center;verticalAlign=middle;whiteSpace=wrap;rounded=0;" parent="1" vertex="1">
          <mxGeometry y="401" width="40" height="200" as="geometry" />
        </mxCell>
      </root>
    </mxGraphModel>
  </diagram>
</mxfile>
